<svg xmlns="http://www.w3.org/2000/svg" width="103.694" height="55.295" viewBox="0 0 103.694 55.295"><defs><style>.a{fill:#fff;}.a,.b,.c{fill-rule:evenodd;}.b{fill:#212021;}.c{fill:rgba(255,255,255,0);}</style></defs><g transform="translate(-21.335 -161.012)"><path class="a" d="M229.259,430.777l-.708-4.285s-.467-2.056,4.838-2.35a56.04,56.04,0,0,1,11.681.691c1.8.276,8.433,1.313,10.886,1.607,2.575.311,9.729,1.78,13.634-1.14,0,0,.38,4.873-5.219,5.72-5.6.829-14.221-.57-15.448-.76a107.859,107.859,0,0,0-12.1-1.365c-3.007-.069-7.69.276-7.569,1.884" transform="translate(-171.4 -217.599)"/><path class="b" d="M254.273,433.4c.052,0,.052-.017.052-.086-.052-.674-.1-1.227-.156-1.884,0-.069-.017-.086-.069-.086v-.035c.467-.052.9-.1,1.382-.138.069,0,.069-.035.069-.069h.035c.017.173.035.328.052.5H255.6c0-.052-.035-.069-.086-.069-.346.035-.674.052-1.02.086.017.173.035.346.052.536.242-.035.432-.035.674-.052.052,0,.069-.017.069-.086h.035a4.885,4.885,0,0,1,.035.5h-.035c0-.052-.017-.069-.069-.069-.242.017-.432.035-.674.052l.052.57c.38-.035.691-.052,1.054-.069.052,0,.069-.017.069-.069h.035c.017.173.017.311.035.484h-.035c0-.052-.035-.069-.086-.069-.5.035-.9.052-1.4.1-.035-.035-.035-.035-.035-.052" transform="translate(-192.543 -223.417)"/><path class="b" d="M267.179,431.726a.037.037,0,0,1-.035-.035v-.052a.8.8,0,0,0-.57-.276c-.346.017-.467.138-.467.346.138.536,1.158-.276,1.348.916.017.432-.19.674-.795.691a1.031,1.031,0,0,1-.743-.242c-.017,0-.017.017-.035.017h-.035c.052-.19.086-.328.138-.518.017,0,.017.017.035.035v.052c.035.19.294.294.57.311.415-.017.5-.138.518-.311-.138-.622-1.14.207-1.313-.9-.017-.553.311-.743.743-.76a1.337,1.337,0,0,1,.691.242.06.06,0,0,0,.035-.017c.017,0,.017.017.035.017a3.954,3.954,0,0,1-.121.484" transform="translate(-202.218 -223.334)"/><path class="b" d="M277.64,433.012c0,.069.035.086.069.086v.035a3.613,3.613,0,0,1-.432-.017v-.035c.052,0,.069-.017.052-.086-.052-.588-.086-1.106-.156-1.728-.173,0-.346-.017-.518-.017-.069,0-.069.017-.069.069h-.035l-.052-.518h.035c0,.052.017.069.086.086.467,0,.881.017,1.348.035.069,0,.069-.017.069-.069h.035c.017.173.035.363.052.536h-.035c0-.052-.017-.086-.086-.086-.173-.017-.346-.017-.518-.017.052.639.1,1.14.156,1.728" transform="translate(-211.072 -223.169)"/><path class="b" d="M298.973,434.495c.035,0,.052-.017.052-.086-.052-.674-.086-1.227-.156-1.953,0-.069-.017-.1-.069-.1V432.3a3.368,3.368,0,0,0,.432.035v.052c-.069,0-.069.017-.052.086.069.639.086,1.141.138,1.728.346.035.657.069,1,.1.052,0,.069-.017.069-.069h.035a4.257,4.257,0,0,1,.035.484h-.035c0-.035-.017-.069-.086-.069-.467-.052-.9-.1-1.365-.138v-.017" transform="translate(-229.519 -224.41)"/><path class="b" d="M310.317,434.354c.346.069.6.346.674.881.035.536-.19.708-.536.674-.346-.069-.587-.294-.674-.847-.035-.536.19-.743.536-.708m-.035-.38c-.518-.052-.829.259-.795,1.054a1.244,1.244,0,0,0,1.02,1.227c.536.035.847-.207.812-.985a1.358,1.358,0,0,0-1.037-1.3" transform="translate(-238.358 -225.79)"/><path class="b" d="M323.866,437.715c0,.069.017.086.069.1v.035a3.191,3.191,0,0,1-.4-.069v-.035a.06.06,0,0,0,.035-.017c-.017-.035-.035-.052-.052-.086-.4-.536-.726-1.02-1.123-1.59.052.536.086.95.121,1.451,0,.069.017.086.069.1v.035l-.4-.052v-.035c.052,0,.052,0,.052-.069-.052-.657-.1-1.227-.173-1.935,0-.069-.017-.086-.069-.1V435.4a4.343,4.343,0,0,0,.467.069v.052c-.052-.017-.052,0-.052.035,0,.017.017.035.035.052.4.57.708,1.02,1.089,1.555-.035-.484-.086-.881-.121-1.382,0-.069,0-.086-.069-.1v-.035a3.185,3.185,0,0,1,.4.069v.035c-.052,0-.052.017-.052.086.086.691.121,1.227.173,1.883" transform="translate(-248.71 -226.974)"/><path class="b" d="M335.315,437.749c.207.035.38.069.57.086.294.069.518.207.57.829.035.57-.1.674-.38.639-.225-.035-.432-.069-.639-.1-.035-.484-.069-.916-.121-1.452m-.173,1.624c0,.069,0,.086-.052.069v.035l1.02.156c.484.052.691-.173.657-.933-.086-.691-.311-1.106-.9-1.227-.346-.052-.639-.1-.968-.173v.035c.052.017.069.035.069.1.069.726.121,1.3.173,1.935" transform="translate(-259.381 -228.546)"/><path class="b" d="M349.234,440.532a.869.869,0,0,1,.674.847c.035.518-.19.691-.536.657-.363-.069-.6-.311-.674-.847-.035-.518.173-.708.536-.657m-.035-.363c-.553-.052-.847.207-.812.968a1.278,1.278,0,0,0,1,1.227c.553.052.864-.19.829-.95a1.312,1.312,0,0,0-1.02-1.244" transform="translate(-270.535 -230.914)"/><path class="b" d="M362.666,443.764c0,.069.017.086.069.086v.035c-.138-.017-.276-.035-.4-.052v-.052c.017,0,.035,0,.035-.017-.017-.035-.035-.052-.052-.086-.38-.536-.726-.985-1.106-1.555.035.518.086.933.121,1.417,0,.069.017.086.069.1v.035a2.762,2.762,0,0,0-.4-.052v-.035c.052,0,.052,0,.035-.069-.052-.639-.1-1.21-.173-1.883,0-.069-.017-.086-.069-.1V441.5c.156.017.294.052.467.069v.035c-.017.017-.035.017-.052.035.017.017.017.035.035.052.363.536.708.985,1.071,1.5-.035-.467-.069-.864-.121-1.348,0-.069,0-.086-.069-.1v-.052a3.129,3.129,0,0,0,.4.052v.035c-.035,0-.052.017-.052.086.069.691.121,1.244.19,1.9" transform="translate(-280.806 -232.02)"/><path class="b" d="M385.738,445.121c.069-.086.035-.121.035-.121.138.017.276.035.432.052v.035q-.078,0-.052.1c.052.657.086,1.21.173,1.849,0,.069.035.1.069.1v.035l-.449-.052v-.035c.052,0,.052-.017.052-.1-.052-.518-.086-.933-.138-1.452-.173,0-.173.017-.19.1h-.035a4.238,4.238,0,0,1-.035-.467s.069.035.138-.052" transform="translate(-301.32 -234.915)"/><path class="b" d="M392.975,445.718c-.346-.035-.674-.035-1.02-.069-.052,0-.069,0-.069.052h-.035c-.017-.173-.035-.328-.052-.5h.035c0,.052.017.069.086.069.449.035.812.069,1.279.086.052,0,.069,0,.069-.069h.035a2.822,2.822,0,0,0,.035.38c-.207.57-.38,1.071-.588,1.624,0,.035-.017.052-.017.086s.017.035.052.035v.035a4.556,4.556,0,0,1-.484-.035v-.035c.035,0,.052-.052.086-.086.207-.536.38-1,.588-1.572" transform="translate(-306.449 -235.081)"/><path class="b" d="M404.611,448.3c.017.276-.1.38-.38.38-.276-.017-.415-.121-.449-.4a.361.361,0,0,1,.38-.38.414.414,0,0,1,.449.4m.1-1.313c-.017,0-.017,0-.035-.017-.017,0-.017.017-.035.035a.765.765,0,0,1-.173-.1,1,1,0,0,0-.363-.1c-.518.017-.76.4-.726,1.106.086.726.346,1.071.881,1.106.363,0,.674-.173.639-.743a.739.739,0,0,0-.726-.726.637.637,0,0,0-.518.242c0-.449.156-.639.467-.639.276.017.4.173.415.259v.035c.017,0,.017.017.035.017a3.681,3.681,0,0,0,.138-.467" transform="translate(-316.029 -236.404)"/><path class="b" d="M414.593,447.746c.311.017.5.259.553.743.035.484-.121.743-.415.778-.311-.017-.5-.277-.553-.743-.035-.484.086-.743.415-.778m-.035-.346c-.5.052-.743.449-.691,1.141.086.674.4,1.071.881,1.106.5-.052.743-.467.691-1.158-.069-.691-.363-1.071-.881-1.089" transform="translate(-324.697 -236.9)"/><path class="b" d="M287.5,442.442a.22.22,0,0,1,.207-.242c.1,0,.19.1.207.242a.23.23,0,0,1-.19.242.244.244,0,0,1-.225-.242" transform="translate(-220.172 -232.599)"/><path class="a" d="M245.022,456.786l.069,1.469a14.292,14.292,0,0,1,3.162-.121c1.175.173,2,.76.138,1.106a32.69,32.69,0,0,1-6.048.415,22.114,22.114,0,0,1-6.912-.916c-1.434-.674.622-1.849,3.024-2.074a24.1,24.1,0,0,1,3.8-.173c.743,0,1.659.069,2.765.138Z" transform="translate(-176.708 -244.42)"/><path class="c" d="M295.364,457.39c1.624.156,2.039.225,2.039.225l.207,1.676s-.017-.467-1.814-.588a12.243,12.243,0,0,0-2.627.156L293.1,457.2c1.365.086,1.313.1,2.264.19" transform="translate(-224.804 -245.007)"/><path class="a" d="M324.33,227.911a15.894,15.894,0,0,0-1.572,2.678,8.163,8.163,0,0,0-3.681,1.763l-.276.259.38-.017a7.606,7.606,0,0,1,2.523.363c-.881,2.091-1.538,3.974-1.538,3.992l-.19.57s3.663-3.594,3.8-3.732a19.8,19.8,0,0,1,2.143,1.261l.346.259s-.9-2.73-.95-2.886a16.626,16.626,0,0,1,1.935-2.091l.311-.259-.76.017c-.449.017-1.14.035-2.091.156-.017-.276-.1-2.644-.1-2.644Z" transform="translate(-246.063 -55.082)"/><path class="a" d="M276.125,240.446a10.462,10.462,0,0,0-.916,1.832,5.725,5.725,0,0,0-2.35,1.331l-.259.276.38-.035a5.278,5.278,0,0,1,1.607.121c-.086.294-1,3.283-1,3.283l.432-.5s1.918-2.177,2.056-2.333a9.865,9.865,0,0,1,1.417.726l.38.242s-.743-1.849-.795-1.987a10.554,10.554,0,0,1,1.158-1.452l.294-.276-.639.069-1.313.19c-.017-.242-.19-1.832-.19-1.832Z" transform="translate(-207.846 -65.422)"/><path class="a" d="M211.516,263.246a6.717,6.717,0,0,0-.57,1.21,3.741,3.741,0,0,0-1.5.881l-.242.276.363-.052a3.193,3.193,0,0,1,.968.069c-.069.276-.691,2.35-.691,2.35l.432-.5s1.244-1.469,1.279-1.5c.156.086,1.21.639,1.21.639l-.138-.346s-.363-.9-.4-1.02a5.664,5.664,0,0,1,.726-.933l.276-.276-.536.052s-.587.086-.812.121c-.035-.225-.138-1.313-.138-1.313Z" transform="translate(-155.402 -84.282)"/><path class="a" d="M242.524,260.128a9.188,9.188,0,0,0-.778,1.555,4.849,4.849,0,0,0-1.987,1.14l-.259.276.38-.052a4.018,4.018,0,0,1,1.331.1c-.086.276-.881,2.886-.881,2.886l.432-.5s1.59-1.832,1.728-1.97a7.589,7.589,0,0,1,1.192.622l.38.242s-.657-1.624-.708-1.745a10.086,10.086,0,0,1,.968-1.227l.276-.276-.6.069-1.089.155c-.017-.242-.173-1.607-.173-1.607Z" transform="translate(-180.466 -81.718)"/><path class="a" d="M306.224,206.728a8.821,8.821,0,0,0-.778,1.572,4.7,4.7,0,0,0-1.987,1.14l-.259.276.38-.035a4.018,4.018,0,0,1,1.331.1c-.086.276-.881,2.886-.881,2.886l.432-.5s1.607-1.832,1.728-1.987a8.416,8.416,0,0,1,1.192.622l.38.242s-.657-1.624-.708-1.745a10.086,10.086,0,0,1,.968-1.227l.294-.276-.6.052s-.881.121-1.106.156c-.035-.242-.173-1.607-.173-1.607Z" transform="translate(-233.159 -37.545)"/><path class="a" d="M268.354,324.324a3.02,3.02,0,0,1-1.123.225,1.21,1.21,0,0,1-1.175-1.106c-.19-.916.156-.864.829-.916a10.009,10.009,0,0,0,2.557-.95,1.384,1.384,0,0,1,1.935.4c.38.743-.173,1.538-.536,1.987-.19.242-.138.4.276.1a11.034,11.034,0,0,1,2.73-1.572c1.21-.415,1.97.035,2.074,1.02a7.886,7.886,0,0,1-.726,3.128c-.035.086-.121.225-.069.225s.1-.086.225-.19c.415-.4,1.313-1.244,1.624-1.486.19-.138,1.918-1.469,2.506.276s1.331,3.992,1.832,5.011a13.317,13.317,0,0,0,1.365,2.091c.173.277.691,1.21.1,1.659s-2.73-.311-3.663-3.093c-.847-2.488-.9-2.73-.985-2.972-.086-.294-.311-.812-1.59.467a24.555,24.555,0,0,0-2.264,2.609c-.432.588-1,1.452-1.227,1.745-.242.311-.9,1.348-1.607-.173s-.19-2.35.207-3.439c.415-1.106.881-2.108.985-2.523s.328-1.313-1.071-.363a23.347,23.347,0,0,0-4.234,3.94,19.458,19.458,0,0,1-1.572,1.711c-.328.294-1.106.916-1.279-.847a2.526,2.526,0,0,1,.864-2.644c.588-.795,3.214-3.957,3.007-4.32" transform="translate(-201.095 -132.642)"/><path class="a" d="M560.923,274.493a7.334,7.334,0,0,1,5.7-2.8c1.953.035,2.523,1.434,2.229,2.506a2.087,2.087,0,0,1-.778,1.3c-.881.674-3.041.864-3.024-.985,0,0-.484-.259-1.849.691-1.417,1-1.728,1.987-1.348,2.195s1.02.19,3.024-.156c2.022-.346,3.162.5,3.473,1.106s.829,2.506-1.555,4.683a14.239,14.239,0,0,1-4.13,2.92,13.561,13.561,0,0,1-3.18,1.14c-.588.086-1.469-.173-1.521-1-.069-.812.4-1.037,1.313-1.3a12.573,12.573,0,0,0,4.856-2.7c1.9-1.642,2.488-2.989.639-2.713-1.78.276-3.076.726-4.32-.1-1.555-1.037-.449-3.612.466-4.787" transform="translate(-443.897 -91.555)"/><path class="a" d="M58.429,176.752a18.97,18.97,0,0,0-11.007,1.676A47.956,47.956,0,0,1,52,167.162a9.5,9.5,0,0,0,1.607-3.2,10.326,10.326,0,0,1,.916-2.281c.311-.467.086-1.244-1.071,0a26.813,26.813,0,0,0-4.285,5.6c-2.143,3.37-3.819,8.363-4.838,12.7a74.4,74.4,0,0,0-10.04,7.137c.4-3.059.847-6.134,1.192-8.191.795-4.666.484-4.527-.674-6-1.054-1.331-1.572-.069-1.935,1.348-.346,1.348-1.607,9.971-1.884,12.148-.1.829-.242,2.108-.38,3.663-4.907,3.853-6.342,4.147-7.361,4.493a6.732,6.732,0,0,1-1.676.259.244.244,0,0,0-.19.38c1.261,1.8,3.542,1.5,4.683,1.192,1.123-.311,1.244-.363,3.663-1.745.19-.1.4-.242.6-.38-.086,1.883-.138,3.923-.121,5.962.069,6,3.214,9.8,3.871,9.78.57,0-.225-1.4-.588-2.575-.726-2.367-.57-7.171-.259-11.111.086-1.106.259-2.782.484-4.7,2.488-2.108,5.7-5.011,9.487-8.26.173-.138.328-.276.484-.415-.138.76-.242,1.486-.328,2.143a109.168,109.168,0,0,0-.518,16.053c.225,3.4.933,5.339,2.281,5.219,1.832-.156,1.279-3.525,1.14-5.357a107.142,107.142,0,0,1,.778-20.442,19.728,19.728,0,0,1,8.83-3.059c1.348-.19,3.18.1,3.387-.207.19-.311-.829-.57-.829-.57"/><path class="a" d="M412.967,331.121a2.889,2.889,0,0,0,.95.225,10.391,10.391,0,0,1,1.279-4.821,4.12,4.12,0,0,1,4.89-2.229c1.452.518,2.074,2.817,1.676,4.7-.432,2.125-1.538,4.527-4.821,4.147,0,0,.069,2.264,1.745,2.022,1.676-.225,2.8-1.572,3.7-3.007.57-.916.778-1.5,1.123-1.365.242.1.484,1.486-.207,3.041a6.018,6.018,0,0,1-5.028,3.214c-2.627.173-3.836-1.935-4.164-4.337,0,0-2.627-.778-2.074-1.745.173-.328.622.017.933.156m5.789-4.683c-.795-.276-1.348,1-1.624,2.177s-.432,2.8.138,2.92c.467.086,1.331-1.261,1.728-2.7C419.188,328.1,419.412,326.68,418.756,326.438Z" transform="translate(-323.123 -134.912)"/><path class="a" d="M490.1,301.453c0-.449.069-2.125,1.728-1.521s1.348,3.18,1.313,3.8c-.017.622-.069,1.59-.1,2.074-.035.363-.1,1.728,1.192.138a15.811,15.811,0,0,0,3.093-5.357c.484-1.728.639-2.125,1.953-2.385,1.331-.259,1.452.294,1.175,1.728-.276,1.417-1.486,7.828-1.693,8.865s-1.59,8.208-2.039,10.022a59.689,59.689,0,0,1-1.659,5.927c-.536,1.486-2.195,5.08-3.266,4.994-1.054-.086.536-1.832,1.348-5.011.9-3.491,1.123-5.339,1.469-7.154s.432-2.7.674-4.113c.5-2.9.9-5.927,1.037-6.843a24.814,24.814,0,0,1-3.18,3.525c-1.123.916-2.16.6-2.523-1.037a45.545,45.545,0,0,1-.518-7.655" transform="translate(-387.763 -113.435)"/><path class="a" d="M384.077,213.689c.156-1.106.225-2.834.708-3.4.5-.6,2.436-.328,2.678,2.022a26.115,26.115,0,0,1-.674,6.808c-.276,1.538-1.331,6.342-1.538,7.482-.138.743-.933,5.391-1.21,8.588a13.916,13.916,0,0,0,.743,7.016c.57,1.331.4,1.866-.069,1.935-.743.121-1.8-2.074-2.177-3.421a24.472,24.472,0,0,1-.985-6.238,41.108,41.108,0,0,1,.415-7.119c.242-2.436,1.451-8.709,2.108-13.668" transform="translate(-297.948 -40.531)"/><path class="a" d="M183.053,306.916a10.441,10.441,0,0,1,4.925-4.6c2.627-1.348,3.888-1.348,4.372-.6.639,1.02.069,1.866-2.264,2.661-2.765.95-5.547,3.542-4.838,4.942.639,1.261,3.076-.726,4.614-2.488,1.538-1.745,2.817-2.488,3.784-1.642.743.639.346,1.59-.311,3.611-.536,1.607.1,2,.553,1.918.449-.1.726-.242.657.57a1.951,1.951,0,0,1-2.7,1.521c-1.521-.674-.6-3.4-.553-3.767s.207-1.14-.674.035-3.128,3.629-5.443,3.456c-1.953-.173-3.905-2.125-2.125-5.616" transform="translate(-133.195 -115.977)"/><path class="a" d="M559.323,366.346a1.123,1.123,0,1,1,1.123-1.123,1.11,1.11,0,0,1-1.123,1.123m0-1.987a.864.864,0,1,0,.847.864.841.841,0,0,0-.847-.864m.415,1.417h-.156a.09.09,0,0,1-.069-.035l-.225-.363H559.2v.363c0,.017,0,.035-.035.035h-.138c-.035,0-.035-.017-.035-.035v-1c0-.035.017-.052.035-.052h.138c.225,0,.311,0,.432.086a.36.36,0,0,1-.086.57l.242.38c0,.017.017.017.017.035a.06.06,0,0,1-.035.017m-.467-.933H559.2v.363h.121a.163.163,0,0,0,.173-.173c-.017-.138-.086-.19-.225-.19" transform="translate(-444.095 -167.995)"/></g></svg>