<svg xmlns="http://www.w3.org/2000/svg" width="58.389" height="58.389" viewBox="0 0 58.389 58.389"><defs><style>.a{fill:#fff;}</style></defs><path class="a" d="M291.947,411.166c-.29,0-.579-.006-.867-.013l5.966-16.4h8.21a4.027,4.027,0,0,0,3.516-2.461l6.473-17.78c1.06-2.91-.609-5.292-3.705-5.292H300.149l-9.558,26.263h0l-5.418,14.888a29.2,29.2,0,0,1-1.1-56.517l-5.591,15.366h0l-9.295,25.533h6.188l7.9-21.7h4.65l-7.9,21.7H286.2l7.366-20.243c1.059-2.91-.609-5.292-3.7-5.292h-5.2l5.972-16.414c.436-.02.872-.031,1.312-.031a29.194,29.194,0,1,1,0,58.389Zm17.664-38.123h-4.649l-6.51,17.862H303.1Z" transform="translate(-262.753 -352.777)"/></svg>