<svg xmlns="http://www.w3.org/2000/svg" width="195.722" height="44" viewBox="0 0 195.722 44">
  <g id="Group_3096" data-name="Group 3096" transform="translate(-154.586 -291.461)">
    <g id="Group_332" data-name="Group 332" transform="translate(206.535 305.092)">
      <g id="Group_331" data-name="Group 331" transform="translate(0 0)">
        <path id="Path_1" data-name="Path 1" d="M423.882,365.335a1.719,1.719,0,0,1-.427.488.955.955,0,0,1-.576.163,1.406,1.406,0,0,1-.67-.2q-.359-.2-.813-.44a6.76,6.76,0,0,0-1.036-.44,4.142,4.142,0,0,0-1.327-.2,2.855,2.855,0,0,0-1.917.549,1.866,1.866,0,0,0-.63,1.483,1.365,1.365,0,0,0,.379.989,3.263,3.263,0,0,0,1,.677,10.625,10.625,0,0,0,1.409.521q.792.237,1.619.528a14.471,14.471,0,0,1,1.619.684,5.415,5.415,0,0,1,1.409,1,4.678,4.678,0,0,1,1,1.483,5.274,5.274,0,0,1,.379,2.106,6.867,6.867,0,0,1-.474,2.56,5.994,5.994,0,0,1-1.375,2.079,6.382,6.382,0,0,1-2.221,1.4,8.313,8.313,0,0,1-3,.508,9.617,9.617,0,0,1-1.876-.189,11.13,11.13,0,0,1-1.849-.535,10.7,10.7,0,0,1-1.68-.82,7.121,7.121,0,0,1-1.368-1.056l1.354-2.14a1.1,1.1,0,0,1,.42-.393A1.191,1.191,0,0,1,413.8,376a1.545,1.545,0,0,1,.82.257q.413.258.935.569a7.55,7.55,0,0,0,1.2.569,4.492,4.492,0,0,0,1.6.257,3.043,3.043,0,0,0,1.937-.549,2.089,2.089,0,0,0,.691-1.741,1.647,1.647,0,0,0-.379-1.124,2.937,2.937,0,0,0-1-.718,9.168,9.168,0,0,0-1.4-.5q-.786-.217-1.612-.481a11.8,11.8,0,0,1-1.612-.65,5.088,5.088,0,0,1-1.4-1.016,4.75,4.75,0,0,1-1-1.571,6.241,6.241,0,0,1-.379-2.323,5.513,5.513,0,0,1,.447-2.167,5.6,5.6,0,0,1,1.314-1.883,6.462,6.462,0,0,1,2.126-1.32,7.854,7.854,0,0,1,2.885-.494,10.817,10.817,0,0,1,1.768.142,9.283,9.283,0,0,1,1.632.42,8.947,8.947,0,0,1,1.443.664,6.657,6.657,0,0,1,1.2.874Z" transform="translate(-411.448 -360.654)" fill="#4d4d4d"/>
        <path id="Path_2" data-name="Path 2" d="M486.872,388.49a4.955,4.955,0,0,1-1.768-.291,3.41,3.41,0,0,1-2.079-2.12,5,5,0,0,1-.271-1.693v-7.26h-1.192a.758.758,0,0,1-.786-.826V374.66l2.235-.433.826-3.427a.835.835,0,0,1,.921-.65h2.194v4.1h3.413v2.872h-3.413V384.1a1.313,1.313,0,0,0,.237.806.8.8,0,0,0,.684.318,1.34,1.34,0,0,0,.386-.047,1.537,1.537,0,0,0,.271-.108c.076-.041.149-.077.217-.108a.552.552,0,0,1,.237-.048.489.489,0,0,1,.3.088,1.092,1.092,0,0,1,.237.278l1.273,1.991a5.8,5.8,0,0,1-1.829.914A7.266,7.266,0,0,1,486.872,388.49Z" transform="translate(-466.756 -367.867)" fill="#4d4d4d"/>
        <path id="Path_3" data-name="Path 3" d="M538.012,389.238a8.114,8.114,0,0,1,2.912.5,6.389,6.389,0,0,1,2.255,1.436,6.47,6.47,0,0,1,1.463,2.269,8.188,8.188,0,0,1,.521,3,8.335,8.335,0,0,1-.521,3.027,6.509,6.509,0,0,1-1.463,2.289,6.417,6.417,0,0,1-2.255,1.449,8.019,8.019,0,0,1-2.912.508,8.11,8.11,0,0,1-2.933-.508,6.54,6.54,0,0,1-2.276-1.449,6.415,6.415,0,0,1-1.477-2.289,8.332,8.332,0,0,1-.521-3.027,8.186,8.186,0,0,1,.521-3,6.376,6.376,0,0,1,1.477-2.269,6.511,6.511,0,0,1,2.276-1.436A8.206,8.206,0,0,1,538.012,389.238Zm0,11.364a2.384,2.384,0,0,0,2.133-1.023,7.39,7.39,0,0,0,0-6.21,2.39,2.39,0,0,0-2.133-1.016,2.449,2.449,0,0,0-2.181,1.016,7.324,7.324,0,0,0,0,6.21A2.443,2.443,0,0,0,538.012,400.6Z" transform="translate(-506.666 -383.094)" fill="#4d4d4d"/>
        <path id="Path_4" data-name="Path 4" d="M617.564,392.787a2.333,2.333,0,0,1-.366.366.808.808,0,0,1-.5.136,1.077,1.077,0,0,1-.562-.149l-.562-.332a4.254,4.254,0,0,0-.731-.332,3.156,3.156,0,0,0-1.043-.149,2.923,2.923,0,0,0-1.334.284,2.472,2.472,0,0,0-.928.813,3.713,3.713,0,0,0-.542,1.293,7.724,7.724,0,0,0-.176,1.727,5.262,5.262,0,0,0,.779,3.1,2.5,2.5,0,0,0,2.147,1.084,3,3,0,0,0,1.158-.183,3.494,3.494,0,0,0,.725-.406l.549-.413a1.014,1.014,0,0,1,.63-.19.868.868,0,0,1,.759.366l1.219,1.5a6.63,6.63,0,0,1-1.368,1.212,6.866,6.866,0,0,1-1.47.731,7.566,7.566,0,0,1-1.51.366,11.12,11.12,0,0,1-1.476.1,6.336,6.336,0,0,1-2.458-.488,6.026,6.026,0,0,1-2.059-1.415,6.773,6.773,0,0,1-1.409-2.282,8.549,8.549,0,0,1-.521-3.089,8.673,8.673,0,0,1,.454-2.837,6.436,6.436,0,0,1,1.341-2.289,6.234,6.234,0,0,1,2.194-1.524,7.691,7.691,0,0,1,3.027-.555,7.378,7.378,0,0,1,2.9.528,6.954,6.954,0,0,1,2.248,1.544Z" transform="translate(-567.06 -383.094)" fill="#4d4d4d"/>
        <path id="Path_5" data-name="Path 5" d="M677.133,359.5v11.364h.623a1.339,1.339,0,0,0,.6-.108,1.129,1.129,0,0,0,.4-.393l2.655-3.955a1.446,1.446,0,0,1,.549-.515,1.766,1.766,0,0,1,.806-.162h3.846l-3.63,5a3.933,3.933,0,0,1-.562.623,4.686,4.686,0,0,1-.657.488,4.128,4.128,0,0,1,1.056,1.219l3.955,6.718h-3.793a1.978,1.978,0,0,1-.819-.156,1.215,1.215,0,0,1-.562-.548l-2.655-4.971a1.04,1.04,0,0,0-.393-.44,1.418,1.418,0,0,0-.609-.1h-.813v6.217h-4.2V359.5Z" transform="translate(-620.05 -359.372)" fill="#4d4d4d"/>
        <path id="Path_6" data-name="Path 6" d="M759.354,358.86a7.833,7.833,0,0,1,2.695.436,6.035,6.035,0,0,1,2.043,1.212,5.227,5.227,0,0,1,1.3,1.849,6.054,6.054,0,0,1,.45,2.362,6.5,6.5,0,0,1-.312,2.05,8.068,8.068,0,0,1-.852,1.794,12.54,12.54,0,0,1-1.254,1.648q-.714.8-1.517,1.614l-3.948,4.045a14.424,14.424,0,0,1,1.5-.354,8,8,0,0,1,1.392-.131h3.768a1.526,1.526,0,0,1,1.094.381,1.32,1.32,0,0,1,.4,1v2.494H751.928v-1.385a2.519,2.519,0,0,1,.166-.859,2.073,2.073,0,0,1,.582-.831l5.818-5.86a19.249,19.249,0,0,0,1.3-1.427,8.867,8.867,0,0,0,.914-1.337,6.084,6.084,0,0,0,.54-1.316,5.256,5.256,0,0,0,.18-1.392,2.691,2.691,0,0,0-.575-1.85,2.231,2.231,0,0,0-1.753-.644,2.71,2.71,0,0,0-.887.139,2.656,2.656,0,0,0-.72.374,2.481,2.481,0,0,0-.547.554,2.919,2.919,0,0,0-.367.693,2,2,0,0,1-.561.9,1.414,1.414,0,0,1-.921.277q-.139,0-.3-.014t-.326-.042l-2.272-.4a7.572,7.572,0,0,1,.852-2.632,6.2,6.2,0,0,1,3.706-2.986A8.849,8.849,0,0,1,759.354,358.86Z" transform="translate(-683.068 -358.86)" fill="#e23934"/>
        <path id="Path_7" data-name="Path 7" d="M845.716,365.335a1.724,1.724,0,0,1-.427.488.957.957,0,0,1-.576.163,1.407,1.407,0,0,1-.671-.2q-.359-.2-.813-.44a6.753,6.753,0,0,0-1.036-.44,4.143,4.143,0,0,0-1.328-.2,2.855,2.855,0,0,0-1.916.549,1.865,1.865,0,0,0-.63,1.483,1.366,1.366,0,0,0,.379.989,3.266,3.266,0,0,0,1,.677,10.623,10.623,0,0,0,1.409.521q.792.237,1.619.528a14.484,14.484,0,0,1,1.619.684,5.414,5.414,0,0,1,1.409,1,4.679,4.679,0,0,1,1,1.483,5.274,5.274,0,0,1,.379,2.106,6.866,6.866,0,0,1-.474,2.56,6,6,0,0,1-1.375,2.079,6.382,6.382,0,0,1-2.221,1.4,8.314,8.314,0,0,1-3,.508,9.616,9.616,0,0,1-1.876-.189,11.13,11.13,0,0,1-1.849-.535,10.691,10.691,0,0,1-1.68-.82,7.118,7.118,0,0,1-1.368-1.056l1.354-2.14a1.1,1.1,0,0,1,.42-.393,1.191,1.191,0,0,1,.582-.149,1.544,1.544,0,0,1,.819.257q.413.258.935.569a7.561,7.561,0,0,0,1.2.569,4.49,4.49,0,0,0,1.6.257,3.044,3.044,0,0,0,1.937-.549,2.089,2.089,0,0,0,.691-1.741,1.646,1.646,0,0,0-.379-1.124,2.933,2.933,0,0,0-1-.718,9.162,9.162,0,0,0-1.4-.5q-.786-.217-1.612-.481a11.8,11.8,0,0,1-1.612-.65,5.088,5.088,0,0,1-1.4-1.016,4.745,4.745,0,0,1-1-1.571,6.235,6.235,0,0,1-.38-2.323,5.514,5.514,0,0,1,.447-2.167,5.6,5.6,0,0,1,1.314-1.883,6.462,6.462,0,0,1,2.127-1.32,7.853,7.853,0,0,1,2.885-.494,10.819,10.819,0,0,1,1.768.142,9.287,9.287,0,0,1,1.632.42,8.943,8.943,0,0,1,1.443.664,6.66,6.66,0,0,1,1.2.874Z" transform="translate(-747.968 -360.654)" fill="#4d4d4d"/>
        <path id="Path_8" data-name="Path 8" d="M908.425,379.779V359.5h4.2v7.463a6.825,6.825,0,0,1,1.646-1.05,5.134,5.134,0,0,1,2.12-.4,4.919,4.919,0,0,1,2.038.4,4.23,4.23,0,0,1,1.5,1.111,4.8,4.8,0,0,1,.921,1.693,7.027,7.027,0,0,1,.312,2.133v8.926h-4.2v-8.926a2.456,2.456,0,0,0-.474-1.605,1.7,1.7,0,0,0-1.4-.576,2.924,2.924,0,0,0-1.3.3,5.065,5.065,0,0,0-1.165.8v10.01Z" transform="translate(-807.914 -359.372)" fill="#4d4d4d"/>
        <path id="Path_9" data-name="Path 9" d="M986.22,389.238a8.113,8.113,0,0,1,2.912.5,6.386,6.386,0,0,1,2.255,1.436,6.475,6.475,0,0,1,1.463,2.269,8.191,8.191,0,0,1,.521,3,8.338,8.338,0,0,1-.521,3.027,6.514,6.514,0,0,1-1.463,2.289,6.415,6.415,0,0,1-2.255,1.449,8.018,8.018,0,0,1-2.912.508,8.11,8.11,0,0,1-2.933-.508,6.54,6.54,0,0,1-2.276-1.449,6.414,6.414,0,0,1-1.476-2.289,8.333,8.333,0,0,1-.521-3.027,8.186,8.186,0,0,1,.521-3,6.375,6.375,0,0,1,1.476-2.269,6.511,6.511,0,0,1,2.276-1.436A8.206,8.206,0,0,1,986.22,389.238Zm0,11.364a2.384,2.384,0,0,0,2.133-1.023,7.391,7.391,0,0,0,0-6.21,2.39,2.39,0,0,0-2.133-1.016,2.45,2.45,0,0,0-2.181,1.016,7.326,7.326,0,0,0,0,6.21A2.444,2.444,0,0,0,986.22,400.6Z" transform="translate(-864.227 -383.094)" fill="#4d4d4d"/>
        <path id="Path_10" data-name="Path 10" d="M1056.03,407.743v-18.5h2.6a1.162,1.162,0,0,1,.657.176.941.941,0,0,1,.372.528l.312,1.029a7.064,7.064,0,0,1,.874-.813,5.748,5.748,0,0,1,1-.63,5.52,5.52,0,0,1,1.151-.413,5.733,5.733,0,0,1,1.348-.149,4.325,4.325,0,0,1,2.032.488,4.683,4.683,0,0,1,1.612,1.409,7.113,7.113,0,0,1,1.063,2.255,10.906,10.906,0,0,1,.386,3.027,9.336,9.336,0,0,1-.44,2.926,7.352,7.352,0,0,1-1.233,2.33,5.678,5.678,0,0,1-1.9,1.544,5.362,5.362,0,0,1-2.445.555,4.789,4.789,0,0,1-1.842-.311,5,5,0,0,1-1.355-.84v5.391Zm6.854-15.563a3.626,3.626,0,0,0-.833.088,3.059,3.059,0,0,0-.691.251,2.613,2.613,0,0,0-.589.413,6.1,6.1,0,0,0-.542.576v5.96a2.649,2.649,0,0,0,1.03.738,3.26,3.26,0,0,0,1.165.21,2.471,2.471,0,0,0,1.07-.23,2.179,2.179,0,0,0,.847-.738,3.925,3.925,0,0,0,.562-1.32,8.269,8.269,0,0,0,.2-1.978,9.108,9.108,0,0,0-.162-1.869,3.859,3.859,0,0,0-.454-1.226,1.76,1.76,0,0,0-.7-.67A2,2,0,0,0,1062.884,392.18Z" transform="translate(-925.667 -382.88)" fill="#4d4d4d"/>
      </g>
    </g>
    <g id="Group_333" data-name="Group 333" transform="translate(154.586 291.461)">
      <path id="Path_11" data-name="Path 11" d="M161.817,394.315l-.02.086a14.966,14.966,0,0,0,1.49,10.534c.075.136.156.269.232.4a1.143,1.143,0,0,1,.23.785.972.972,0,0,1-.431.654,2.007,2.007,0,0,1-.376.133c-.147.026-.3.053-.446.073a7,7,0,0,1-1.9-13.865l.056-.008a1.038,1.038,0,0,1,.783.111.909.909,0,0,1,.379,1.093" transform="translate(-154.586 -372.528)" fill="#4d4d4d"/>
      <circle id="Ellipse_5" data-name="Ellipse 5" cx="13.06" cy="13.06" r="13.06" transform="translate(8.707 12.127)" fill="#e23934"/>
      <path id="Path_12" data-name="Path 12" d="M254.8,301.732c.289-.017.35-.009.643-.009a14.888,14.888,0,0,1,11.174,5.03,1.284,1.284,0,0,0,.876.581,1.075,1.075,0,0,0,.884-.306l.213-.181a8.861,8.861,0,1,0-14.857-6.524,1.758,1.758,0,0,0,.089.743,1.03,1.03,0,0,0,.978.665" transform="translate(-233.673 -291.461)" fill="#333"/>
      <path id="Path_13" data-name="Path 13" d="M286.618,460.8q.114.153.218.313a5.908,5.908,0,1,1-10,6.292c-.047-.078-.09-.158-.137-.237a.789.789,0,0,1-.106-.753.846.846,0,0,1,.7-.512,4.573,4.573,0,0,0,.486-.131,14.931,14.931,0,0,0,7.181-4.615c.093-.109.181-.223.276-.33a.97.97,0,0,1,.439-.373.767.767,0,0,1,.675.075A.916.916,0,0,1,286.618,460.8Z" transform="translate(-251.875 -426.245)" fill="#4d4d4d"/>
    </g>
  </g>
</svg>
