<svg xmlns="http://www.w3.org/2000/svg" width="110.298" height="27.209" viewBox="0 0 110.298 27.209"><defs><style>.a{fill:#fff;}</style></defs><g transform="translate(-96.848 -182.332)"><path class="a" d="M110.452,183.941v1.609h83.089a10.386,10.386,0,1,1,0,20.772H110.452a10.386,10.386,0,0,1,0-20.772v-3.218a13.6,13.6,0,0,0,0,27.209h83.089a13.6,13.6,0,1,0,0-27.209H110.452Z" transform="translate(0 0)"/><path class="a" d="M140.454,215.327V202.77h-3.777v8.78l-5.57-8.78h-4.06v12.557h3.777v-9.064l5.854,9.064Z" transform="translate(-19.33 -13.082)"/><rect class="a" width="3.777" height="8.497" transform="translate(123.484 193.748)"/><rect class="a" width="3.777" height="2.266" transform="translate(123.484 189.688)"/><path class="a" d="M198.261,222.043V216.19c0-1.227-2.36-2.927-3.588-2.927H193.54c-.85,0-1.794.755-2.644,1.133v-.85H187.12v8.5H190.9V216.19c0-.567,1.322-1.227,1.888-1.227s1.605.661,1.605,1.227v5.854Z" transform="translate(-57.782 -19.799)"/><path class="a" d="M286.053,222.856V217c0-1.227-2.36-2.927-3.588-2.927h-1.133c-.85,0-1.794.755-2.644,1.133v-.85h-3.777v8.5h3.777V217c0-.566,1.322-1.227,1.888-1.227s1.605.661,1.605,1.227v5.854Z" transform="translate(-113.977 -20.319)"/><path class="a" d="M224.714,217.342v-8.5H226.7v-1.133h-1.983v-1.794h-3.871v1.794h-1.983v1.133h1.983v8.5Z" transform="translate(-78.099 -15.097)"/><path class="a" d="M245.417,213.263c-3.021,0-5.57,2.077-5.57,4.626,0,2.644,2.549,4.721,5.57,4.721a5.411,5.411,0,0,0,5.381-3.493h-3.871v1.133c0,.944-.661,1.227-1.511,1.227S244,221.194,244,220.25v-2.36h6.987C250.988,215.34,248.533,213.263,245.417,213.263Zm0,.85a1.437,1.437,0,0,1,1.511,1.511v.85H244v-.85A1.365,1.365,0,0,1,245.417,214.113Z" transform="translate(-91.532 -19.799)"/><path class="a" d="M348.772,213.263c-3.115,0-5.57,2.077-5.57,4.626,0,2.644,2.455,4.721,5.57,4.721,3.021,0,5.57-2.077,5.57-4.721C354.343,215.34,351.794,213.263,348.772,213.263Zm0,.85a1.365,1.365,0,0,1,1.416,1.511v4.626c0,.944-.567,1.227-1.416,1.227-.944,0-1.511-.283-1.511-1.227v-4.626A1.39,1.39,0,0,1,348.772,214.113Z" transform="translate(-157.688 -19.799)"/><path class="a" d="M316.087,202.77V207.4a4.838,4.838,0,0,0-2.644-.85,4.457,4.457,0,0,0-4.343,4.343c0,2.36,1.983,4.721,4.343,4.721a6.488,6.488,0,0,0,2.644-.567v.283h3.777V202.77Zm-1.416,5.193a1.415,1.415,0,0,1,1.416,1.511v3.493c0,.85-.566,1.133-1.416,1.133-.944,0-1.511-.283-1.511-1.133v-3.493A1.437,1.437,0,0,1,314.67,207.963Z" transform="translate(-135.86 -13.082)"/><path class="a" d="M373.8,204.653h-.151a1.643,1.643,0,1,1-3.286,0,1.664,1.664,0,0,1,1.643-1.738,1.6,1.6,0,0,1,1.142.509,1.771,1.771,0,0,1,.5,1.229h.3a2.026,2.026,0,0,0-1.945-2.039,1.885,1.885,0,0,0-1.4.6,2.1,2.1,0,0,0-.548,1.436,1.945,1.945,0,0,0,1.945,1.945,2.006,2.006,0,0,0,1.945-1.945Zm-1.191.681-.378-.661-.044-.076h-.748v.3h.661a.546.546,0,0,0,.437-.2.7.7,0,0,0,0-.838.546.546,0,0,0-.437-.2h-.812v1.756h.3v-1.454h.51a.239.239,0,0,1,.2.091.4.4,0,0,1,0,.461.24.24,0,0,1-.2.091h-.661v.3h.573l.334.585.262-.149Z" transform="translate(-174.883 -12.982)"/></g></svg>