<svg xmlns="http://www.w3.org/2000/svg" width="104.042" height="55.467" viewBox="0 0 104.042 55.467"><defs><style>.a{fill:#fff;}</style></defs><path class="a" d="M36.24,175.278v-9.47h2.1v.818a3.547,3.547,0,0,1,2.592-1.144,3.847,3.847,0,0,1,2.846,1.317,5.314,5.314,0,0,1,.873,3.361v5.118H42.383V170.6c0-.784,0-3.035-1.911-3.035a1.945,1.945,0,0,0-1.555.833,4.45,4.45,0,0,0-.41,2.373v4.5H36.24m11.3-5.545h5.234a2.535,2.535,0,0,0-2.555-2.218,2.738,2.738,0,0,0-2.679,2.218m.067,1.824a2.71,2.71,0,0,0,2.612,1.946,2.326,2.326,0,0,0,2.18-1.209h2.391a4.918,4.918,0,0,1-4.571,3.291,4.977,4.977,0,0,1-5-5.017,5.054,5.054,0,0,1,4.981-5.139,4.978,4.978,0,0,1,4.9,4.986,5.433,5.433,0,0,1-.137,1.141Zm10.4,3.721h1.4l1.793-6.142h.031l1.775,6.142h1.4l3.462-9.47H65.449l-1.742,5.783h-.034l-1.535-5.783H60.329l-1.553,5.783h-.035l-1.721-5.783H54.6Zm16.378-4.862a2.879,2.879,0,0,0,2.851,3.087,2.977,2.977,0,0,0-.034-5.935,2.836,2.836,0,0,0-2.818,2.848m-2.128-7.765H74.53v4.013a4.2,4.2,0,0,1,2.952-1.182,4.892,4.892,0,0,1,4.76,5.017c0,1.9-1.248,5.084-4.709,5.084a3.821,3.821,0,0,1-3.193-1.449v1.144H72.262Zm18.422,7.868a2.767,2.767,0,0,0-2.766-2.952,2.874,2.874,0,0,0-2.814,3.017,2.83,2.83,0,0,0,2.814,2.919,2.789,2.789,0,0,0,2.766-2.983m2.149,4.755H90.749V174.1a4.7,4.7,0,0,1-3.309,1.483c-2.439,0-4.6-1.946-4.6-5.1a4.785,4.785,0,0,1,4.743-5,4.039,4.039,0,0,1,3.138,1.524h.032v-1.2h2.084Zm3.475-12.624h-2.27v12.626h2.27Zm8.528,7.868a2.765,2.765,0,0,0-2.763-2.952,2.876,2.876,0,0,0-2.815,3.017,2.83,2.83,0,0,0,2.815,2.919,2.787,2.787,0,0,0,2.763-2.983m2.15,4.755H104.9V174.1a4.7,4.7,0,0,1-3.31,1.483c-2.44,0-4.606-1.946-4.606-5.1a4.785,4.785,0,0,1,4.745-5,4.028,4.028,0,0,1,3.136,1.524h.035v-1.2h2.082Zm1.208,0h2.266v-4.5a4.451,4.451,0,0,1,.41-2.373,1.949,1.949,0,0,1,1.554-.833c1.911,0,1.911,2.251,1.911,3.035v4.675h2.27V170.16a5.307,5.307,0,0,0-.875-3.361,3.843,3.843,0,0,0-2.846-1.317,3.541,3.541,0,0,0-2.592,1.144v-.818h-2.1v9.47m16.471-3.089a2.428,2.428,0,0,1-2.1,1.314,2.838,2.838,0,0,1-2.849-2.968,2.759,2.759,0,0,1,2.745-2.967,2.356,2.356,0,0,1,2.2,1.379h2.561a4.966,4.966,0,0,0-4.763-3.464,5.05,5.05,0,0,0,.019,10.1,4.905,4.905,0,0,0,4.744-3.394h-2.561m5.232-2.455h5.235a2.535,2.535,0,0,0-2.558-2.218,2.742,2.742,0,0,0-2.678,2.218m.07,1.824a2.7,2.7,0,0,0,2.608,1.946,2.325,2.325,0,0,0,2.183-1.209h2.389a4.915,4.915,0,0,1-4.572,3.291,4.979,4.979,0,0,1-5-5.017,5.056,5.056,0,0,1,4.982-5.139,4.975,4.975,0,0,1,4.9,4.986,5.254,5.254,0,0,1-.136,1.141ZM88.639,132.984,99.7,133.7l-.425.735-37.73,2.45L59.862,139.8l35.052,2.211-.423.734L74.98,143.883l1.477,5.535,13.71.838-.428.738-12.642.89,1.189,4.67,24.137-.011c5.811,0,16.259-3.845,17.472-11.915a5.649,5.649,0,0,0-4.869-6.5c7.5-2.113,10.052-7.153,10.6-9.156,1.806-6.611-2.845-8.858-9.131-8.858l-20.445,0L93.469,124.6l11.022.77-.414.742-11.917.764-3.521,6.11m19.788-5.737,3.376,0c1.454,0,2.55,1.7,1.733,3.695-.885,2.154-3.3,3.216-5.627,3.228l-3.488.021Zm-4.021,13.905c1.215,0,2.952,1.265,2.005,3.715-1.019,2.639-4.339,3.564-6.193,3.564h-4l4.2-7.277Zm-52.515,12.5-1.683,2.913,17.344-.016,2.419-4.166ZM69.52,123.036l16.671,1.045-1.053-3.95L71.2,120.121ZM66.371,128.5l-1.678,2.914,23.814,1.567-1.519-5.78Zm-9.655,16.764-1.679,2.917,16.782.941,3.035-5.234Zm83.317,28.875a1.048,1.048,0,1,0-1.048,1.074,1.04,1.04,0,0,0,1.048-1.074m-2.345,0a1.3,1.3,0,1,1,1.3,1.281,1.281,1.281,0,0,1-1.3-1.281m1.028-.086h.269c.274,0,.367-.083.367-.243,0-.14-.07-.22-.332-.22h-.3Zm0,.825h-.228v-1.475h.564c.353,0,.525.132.525.419a.384.384,0,0,1-.386.406l.42.649h-.247l-.4-.642h-.253Z" transform="translate(-36.24 -120.119)"/></svg>